<mxfile host="app.diagrams.net" modified="2021-01-04T19:05:54.605Z" agent="5.0 (Windows NT 10.0; Win64; x64) AppleWebKit/537.36 (KHTML, like Gecko) Chrome/87.0.4280.66 Safari/537.36" etag="tA53EmBvD4h7u3T_i4qJ" version="14.1.7" type="github">
  <diagram id="E4fJUjSJZNu5bQPJ93f7" name="Page-1">
    <mxGraphModel dx="1102" dy="614" grid="1" gridSize="10" guides="1" tooltips="1" connect="1" arrows="1" fold="1" page="1" pageScale="1" pageWidth="850" pageHeight="1100" background="#F1FAEE" math="0" shadow="0">
      <root>
        <mxCell id="0" />
        <mxCell id="1" parent="0" />
        <mxCell id="L4ayeP1gQzN3-GN4eN9Z-1" value="Client" style="html=1;fillColor=#A8DADC;strokeColor=#457B9D;fontColor=#1D3557;" vertex="1" parent="1">
          <mxGeometry x="140" y="210" width="110" height="50" as="geometry" />
        </mxCell>
        <mxCell id="L4ayeP1gQzN3-GN4eN9Z-2" value="Context" style="html=1;fillColor=#A8DADC;strokeColor=#457B9D;fontColor=#1D3557;" vertex="1" parent="1">
          <mxGeometry x="380" y="90" width="110" height="50" as="geometry" />
        </mxCell>
        <mxCell id="L4ayeP1gQzN3-GN4eN9Z-3" value="AbstractExpression" style="swimlane;fontStyle=0;childLayout=stackLayout;horizontal=1;startSize=26;fillColor=none;horizontalStack=0;resizeParent=1;resizeParentMax=0;resizeLast=0;collapsible=1;marginBottom=0;strokeColor=#457B9D;fontColor=#1D3557;" vertex="1" parent="1">
          <mxGeometry x="370" y="210" width="140" height="52" as="geometry" />
        </mxCell>
        <mxCell id="L4ayeP1gQzN3-GN4eN9Z-15" value="" style="endArrow=open;endFill=1;endSize=12;html=1;strokeColor=#457B9D;fontColor=#1D3557;labelBackgroundColor=#F1FAEE;" edge="1" parent="L4ayeP1gQzN3-GN4eN9Z-3">
          <mxGeometry width="160" relative="1" as="geometry">
            <mxPoint x="-120" y="23" as="sourcePoint" />
            <mxPoint x="-1" y="23" as="targetPoint" />
            <Array as="points">
              <mxPoint x="-70" y="23" />
            </Array>
          </mxGeometry>
        </mxCell>
        <mxCell id="L4ayeP1gQzN3-GN4eN9Z-4" value="+Interpret(Context)" style="text;strokeColor=none;fillColor=none;align=left;verticalAlign=top;spacingLeft=4;spacingRight=4;overflow=hidden;rotatable=0;points=[[0,0.5],[1,0.5]];portConstraint=eastwest;fontColor=#1D3557;" vertex="1" parent="L4ayeP1gQzN3-GN4eN9Z-3">
          <mxGeometry y="26" width="140" height="26" as="geometry" />
        </mxCell>
        <mxCell id="L4ayeP1gQzN3-GN4eN9Z-7" value="TerminalExpression" style="swimlane;fontStyle=0;childLayout=stackLayout;horizontal=1;startSize=26;fillColor=none;horizontalStack=0;resizeParent=1;resizeParentMax=0;resizeLast=0;collapsible=1;marginBottom=0;strokeColor=#457B9D;fontColor=#1D3557;" vertex="1" parent="1">
          <mxGeometry x="280" y="330" width="140" height="52" as="geometry">
            <mxRectangle x="280" y="330" width="140" height="26" as="alternateBounds" />
          </mxGeometry>
        </mxCell>
        <mxCell id="L4ayeP1gQzN3-GN4eN9Z-8" value="+Interpret(Context)" style="text;strokeColor=none;fillColor=none;align=left;verticalAlign=top;spacingLeft=4;spacingRight=4;overflow=hidden;rotatable=0;points=[[0,0.5],[1,0.5]];portConstraint=eastwest;fontColor=#1D3557;" vertex="1" parent="L4ayeP1gQzN3-GN4eN9Z-7">
          <mxGeometry y="26" width="140" height="26" as="geometry" />
        </mxCell>
        <mxCell id="L4ayeP1gQzN3-GN4eN9Z-9" value="NonterminalExpression" style="swimlane;fontStyle=0;childLayout=stackLayout;horizontal=1;startSize=26;fillColor=none;horizontalStack=0;resizeParent=1;resizeParentMax=0;resizeLast=0;collapsible=1;marginBottom=0;strokeColor=#457B9D;fontColor=#1D3557;" vertex="1" parent="1">
          <mxGeometry x="450" y="330" width="140" height="52" as="geometry" />
        </mxCell>
        <mxCell id="L4ayeP1gQzN3-GN4eN9Z-10" value="+Interpret(Context)" style="text;strokeColor=none;fillColor=none;align=left;verticalAlign=top;spacingLeft=4;spacingRight=4;overflow=hidden;rotatable=0;points=[[0,0.5],[1,0.5]];portConstraint=eastwest;fontColor=#1D3557;" vertex="1" parent="L4ayeP1gQzN3-GN4eN9Z-9">
          <mxGeometry y="26" width="140" height="26" as="geometry" />
        </mxCell>
        <mxCell id="L4ayeP1gQzN3-GN4eN9Z-13" value="Extends" style="endArrow=block;endSize=16;endFill=0;html=1;entryX=0.343;entryY=1.038;entryDx=0;entryDy=0;entryPerimeter=0;strokeColor=#457B9D;fontColor=#1D3557;labelBackgroundColor=#F1FAEE;" edge="1" parent="1" target="L4ayeP1gQzN3-GN4eN9Z-4">
          <mxGeometry width="160" relative="1" as="geometry">
            <mxPoint x="350" y="329" as="sourcePoint" />
            <mxPoint x="510" y="329" as="targetPoint" />
          </mxGeometry>
        </mxCell>
        <mxCell id="L4ayeP1gQzN3-GN4eN9Z-14" value="Extends" style="endArrow=block;endSize=16;endFill=0;html=1;exitX=0.5;exitY=0;exitDx=0;exitDy=0;entryX=0.65;entryY=1.038;entryDx=0;entryDy=0;entryPerimeter=0;strokeColor=#457B9D;fontColor=#1D3557;labelBackgroundColor=#F1FAEE;" edge="1" parent="1" source="L4ayeP1gQzN3-GN4eN9Z-9" target="L4ayeP1gQzN3-GN4eN9Z-4">
          <mxGeometry width="160" relative="1" as="geometry">
            <mxPoint x="530" y="270" as="sourcePoint" />
            <mxPoint x="690" y="270" as="targetPoint" />
          </mxGeometry>
        </mxCell>
        <mxCell id="L4ayeP1gQzN3-GN4eN9Z-16" value="" style="endArrow=open;endFill=1;endSize=12;html=1;entryX=0;entryY=0.5;entryDx=0;entryDy=0;strokeColor=#457B9D;fontColor=#1D3557;labelBackgroundColor=#F1FAEE;" edge="1" parent="1" target="L4ayeP1gQzN3-GN4eN9Z-2">
          <mxGeometry width="160" relative="1" as="geometry">
            <mxPoint x="253" y="220" as="sourcePoint" />
            <mxPoint x="230" y="60" as="targetPoint" />
            <Array as="points">
              <mxPoint x="320" y="220" />
              <mxPoint x="320" y="115" />
            </Array>
          </mxGeometry>
        </mxCell>
      </root>
    </mxGraphModel>
  </diagram>
</mxfile>
